<svg width="669" height="184" viewBox="0 0 669 184" fill="none" xmlns="http://www.w3.org/2000/svg">
<path d="M32.472 29.372L3.96 85.9208H20.7504L26.532 73.6448H56.5488L62.3304 85.9208H79.1208L50.688 29.372H32.472ZM32.868 60.26L41.58 41.8064L50.2128 60.26H32.868ZM154.381 57.6464C154.381 31.6688 134.66 29.372 124.523 29.372H82.3092V85.9208H124.523C134.66 85.9208 154.381 83.7032 154.381 57.6464ZM128.641 71.744H97.3572V43.628H128.641C136.64 43.628 138.541 50.5184 138.541 57.6464C138.541 64.8536 136.64 71.744 128.641 71.744ZM174.16 46.796C174.16 45.0536 175.031 43.628 179.387 43.628L199.979 43.628C206.711 43.628 207.661 47.4296 207.661 49.172H222.709C222.709 42.6776 220.254 29.372 195.94 29.372H185.881C161.567 29.372 159.112 40.3016 159.112 46.796C159.112 73.4072 207.82 58.4384 207.82 68.576C207.82 70.2392 206.711 71.744 202.513 71.744H181.921C175.268 71.744 174.239 67.8632 174.239 66.2H159.27C159.27 72.6152 161.725 85.9208 185.96 85.9208H196.098C220.333 85.9208 222.788 74.9912 222.788 68.576C222.788 42.044 174.16 56.2208 174.16 46.796ZM270.288 28.58C262.447 28.58 251.518 31.1144 244.231 38.4008V29.372H229.262V85.9208H244.231V66.2C244.231 56.2208 249.379 43.628 266.328 43.628H267.437C279.713 43.628 285.494 48.1424 285.494 59.2304V85.9208H301.255V57.6464C301.255 35.0744 282.722 28.58 270.288 28.58ZM365.409 57.6464C365.409 64.8536 363.508 71.744 355.509 71.744H334.125C326.126 71.744 323.433 64.8536 323.433 57.6464V29.372H308.385V57.6464C308.385 83.7032 328.106 85.9208 338.243 85.9208H350.599C360.736 85.9208 380.457 83.7032 380.457 57.6464V29.372H365.409V57.6464ZM455.837 50.5184C455.837 30.956 439.046 29.372 428.83 29.372H388.358V85.9208H403.406V71.6648H423.286L438.175 85.9208H458.688L441.502 70.2392C449.026 68.1008 455.837 62.9528 455.837 50.5184ZM403.406 43.628H430.097C438.096 43.628 440.076 46.0832 440.076 50.5184C440.076 54.9536 438.096 57.488 430.097 57.488H403.406V43.628ZM478.507 71.9024V29.372H463.459V85.9208H524.998V71.9024H478.507Z" fill="white"/>
<path opacity="0.7" d="M352.385 169.288C351.871 169.063 351.871 169.063 352.978 165.412C354.888 159.006 356.452 154.689 359.129 148.44C359.518 147.52 372.222 142.484 381.922 139.432C385.768 138.22 387.883 137.653 390.889 137.029C393.027 136.547 394.848 136.24 394.848 136.24C394.933 136.217 394.749 137.899 394.525 139.772C393.922 144.286 393.7 147.519 393.653 151.067L393.679 153.871L394.193 154.096C394.492 154.197 394.96 154.253 395.214 154.185C395.637 154.072 395.755 153.496 395.729 150.693C395.67 148.442 395.993 144.91 396.512 140.418C396.791 138.077 397.099 136.181 397.077 136.096C397.139 135.989 397.861 135.977 398.752 135.919C399.92 135.878 400.427 135.742 400.551 135.528C400.861 134.992 399.856 134.626 398.519 134.712C397.904 134.786 397.351 134.753 397.351 134.753C397.306 134.584 398.712 125.956 399.917 119.287C402.052 107.29 403.592 97.8106 403.877 95.8301C404.475 90.9551 403.778 88.6936 401.431 88.0533C400.449 87.7724 398.503 88.2938 397.116 89.2094C392.432 92.3686 383.462 102.207 377.842 110.332C370.892 120.264 363.135 133.948 358.347 144.842C357.626 146.214 357.03 147.371 356.798 147.523C356.567 147.676 354.481 148.688 352.141 149.769C346.491 152.371 346.661 152.325 346.498 152.732C346.312 153.053 346.419 153.115 346.848 153.363C347.554 153.627 350.114 153.032 350.17 152.564C350.125 152.394 356.045 149.448 356.259 149.572C356.259 149.572 355.855 150.768 355.219 152.118C353.874 155.561 352.076 161.029 350.57 166.238L349.306 170.657L349.82 170.882C350.525 171.146 351.286 170.942 352.318 170.394C353.096 169.914 353.175 169.53 352.385 169.288ZM366.518 133.041C375.62 115.914 384.71 103.142 394.476 93.9063C397.778 90.6641 400.614 88.7256 401.218 89.2891C401.562 89.5594 401.931 91.274 401.949 92.3572C401.963 94.4389 401.488 97.7398 397.072 123.222C396.316 127.505 395.582 131.873 395.431 133.001C395.162 134.705 395.084 135.089 394.723 135.095C394.531 135.056 393.048 135.272 391.587 135.573C385.698 136.606 373.906 140.31 364.179 144.276C362.048 145.12 360.339 145.849 360.255 145.872C360.001 145.94 363.738 138.229 366.518 133.041ZM433.486 128.879C432.758 128.53 432.143 128.604 432.087 129.073C431.823 129.778 427.708 132.694 423.164 135.362C421.901 136.063 420.746 136.826 420.577 136.872C420.345 137.024 420.385 136.832 420.406 135.557C420.605 132.24 419.739 130.024 417.938 129.056C417.018 128.668 416.826 128.628 415.896 128.878C415.05 129.104 414.65 129.302 414.109 129.991C413.044 131.092 411.704 133.537 410.54 136.297C409.988 137.623 409.538 138.651 409.454 138.673C409.454 138.673 410.186 132.946 410.304 132.371C410.405 132.072 410.275 131.925 409.739 131.615C409.417 131.43 408.864 131.396 408.61 131.464C408.187 131.578 408.288 131.279 407.376 137.689C407.225 138.817 406.913 141.712 406.741 144.115C406.507 146.626 405.953 150.31 405.583 152.314C404.647 157.279 402.915 171.797 403.119 172.558C403.21 172.897 403.853 173.268 404.429 173.386C404.875 173.357 404.875 173.357 405.083 173.12C405.314 172.968 406.78 162.873 407.786 154.443C408.473 148.547 408.888 146.713 410.468 142.119C412.374 136.712 414.467 132.343 415.949 130.767L416.721 129.926L417.172 130.258C417.517 130.529 417.799 130.906 418.094 132.006C418.502 133.529 418.526 134.973 418.14 137.253C417.95 138.573 417.888 138.68 416.654 139.827C414.163 142.036 411.696 145.689 411.675 146.964C411.677 148.323 413.218 148.999 414.458 148.213C416.098 147.229 418.418 143.706 419.391 140.907L419.874 139.327L421.346 138.388C422.124 137.908 423.995 136.772 425.405 135.941C430.303 132.905 433.409 130.622 433.882 129.68C434.107 129.166 434.107 129.166 433.486 128.879ZM415.868 143.664C415.621 144.093 415.249 144.737 414.832 145.211C414.23 146.007 414.23 146.007 414.601 145.364C414.764 144.957 415.22 144.291 415.553 143.839C416.155 143.043 416.24 143.021 415.868 143.664ZM458.353 122.216C457.625 121.867 457.01 121.941 456.954 122.41C456.69 123.115 452.575 126.031 448.031 128.699C446.768 129.4 445.612 130.163 445.443 130.209C445.212 130.361 445.251 130.169 445.272 128.894C445.471 125.577 444.606 123.361 442.805 122.393C441.885 122.005 441.693 121.965 440.762 122.215C439.916 122.441 439.516 122.639 438.975 123.328C437.91 124.429 436.571 126.874 435.406 129.634C434.855 130.96 434.405 131.988 434.32 132.01C434.32 132.01 435.052 126.283 435.17 125.708C435.271 125.409 435.141 125.262 434.605 124.952C434.283 124.767 433.73 124.734 433.477 124.802C433.054 124.915 433.155 124.616 432.243 131.026C432.092 132.154 431.78 135.049 431.608 137.452C431.374 139.963 430.819 143.647 430.45 145.651C429.513 150.616 427.782 165.134 427.986 165.895C428.077 166.234 428.72 166.605 429.296 166.723C429.741 166.694 429.741 166.694 429.95 166.457C430.181 166.305 431.647 156.21 432.652 147.78C433.339 141.884 433.754 140.05 435.334 135.456C437.24 130.049 439.334 125.68 440.815 124.104L441.587 123.263L442.039 123.595C442.384 123.866 442.666 124.243 442.961 125.343C443.369 126.866 443.393 128.31 443.006 130.59C442.816 131.91 442.754 132.017 441.52 133.164C439.029 135.373 436.563 139.026 436.542 140.301C436.543 141.66 438.084 142.336 439.324 141.55C440.965 140.566 443.285 137.043 444.258 134.244L444.741 132.664L446.212 131.725C446.99 131.245 448.862 130.109 450.271 129.278C455.17 126.242 458.276 123.959 458.749 123.017C458.974 122.503 458.974 122.503 458.353 122.216ZM440.735 137.001C440.487 137.43 440.116 138.074 439.699 138.548C439.096 139.344 439.096 139.344 439.468 138.701C439.631 138.294 440.087 137.628 440.419 137.176C441.022 136.38 441.107 136.358 440.735 137.001ZM482.877 135.592C483.073 134.633 483.073 134.633 482.644 134.385C482.345 134.284 481.899 134.313 481.645 134.381C480.461 134.698 480.435 136.972 481.576 137.845C482.265 138.386 483.738 138.807 484.928 138.851C485.459 138.799 485.842 138.878 485.842 138.878C485.842 138.878 485.652 140.198 485.338 141.733L484.811 144.504L485.325 144.729C485.646 144.914 486.092 144.886 486.408 144.71C487.085 144.529 487.225 144.038 487.818 140.162L488.071 138.734L489.808 138.45C511.218 134.436 535.273 119.649 548.955 102.019C555.63 93.4306 560.442 83.9809 562.384 75.6629C564.046 68.3269 563.459 63.7693 560.543 59.6544C557.39 55.3312 550.644 52.1518 543.671 51.8442C535.485 51.4083 527.312 53.0541 517.208 57.303C515.646 57.9029 514.337 58.4348 514.23 58.3728C514.038 58.3336 518.359 48.7434 518.917 47.7781C519.52 46.9819 519.581 46.8746 519.237 46.6042C519.107 46.4577 518.616 46.3173 518.255 46.3233C516.98 46.3023 516.693 46.9232 512.946 55.2715L510.881 60.0862L508.186 61.5337C504.944 63.309 500.53 66.1238 498.772 67.683C496.698 69.4174 496.778 70.3933 498.973 70.8025C500.401 71.0547 501.332 70.8053 501.111 70.3204C501.066 70.1512 500.659 69.9881 500.275 69.9096C499.892 69.831 499.485 69.6679 499.463 69.5833C499.417 69.4141 500.967 68.0922 502.963 66.7414C504.812 65.5207 509.248 62.7905 509.587 62.6998C509.756 62.6545 509.655 62.9536 509.514 63.4446C508.575 65.691 503.896 78.0065 502.777 80.9358C501.135 85.6372 498.667 93.008 495.098 104.391C491.732 115.176 489.726 122.242 487.235 133.246C486.679 135.571 486.117 137.535 486.033 137.557C485.886 137.687 485.249 137.677 484.588 137.582C482.93 137.482 482.54 137.043 482.877 135.592ZM488.946 135.235C491.382 124.7 494.326 114.028 496.973 105.974C497.378 104.778 498.187 102.385 498.687 100.528C500.846 93.6936 505.18 81.1078 506.704 76.982C508.251 72.9408 512.306 62.6966 512.795 61.4774C513.06 60.7719 515.315 59.7142 520.57 57.6713C528.673 54.4121 534.855 53.1184 541.377 53.0937C546.431 53.0087 550.207 53.9012 553.831 55.9221C555.869 57.0988 556.45 57.5776 557.62 58.8963C559.439 60.9477 560.01 62.064 560.589 64.901C561.088 66.7621 561.1 67.4842 560.984 69.4194C560.673 73.6735 559.156 79.52 557.216 84.1202C555.229 88.5511 551.266 95.416 548.484 99.2443C544.473 104.58 540.467 108.918 534.815 113.878C525.877 121.804 514.478 128.666 502.913 133.216C500.381 134.257 491.397 136.936 489.406 137.288L488.453 137.453L488.946 135.235ZM586.327 87.4722C586.051 87.4556 584.331 88.8229 581.841 91.0317C575.872 96.167 572.558 98.6871 569.215 100.762C565.934 102.729 562.742 103.675 561.754 103.033C560.49 102.374 560.779 99.3951 562.609 95.7316L562.997 94.8115L565.033 94.6286C569.021 94.2853 573.515 92.4464 575.414 90.3963C576.896 88.8205 578.005 86.5287 577.755 85.5982C577.393 84.2446 574.853 83.565 572.569 84.1771C570.285 84.7891 566.841 87.1626 564.418 89.6253C560.891 93.3811 558.448 98.4783 558.773 101.383C559.058 103.121 560.695 104.495 562.822 104.651C563.353 104.599 564.498 104.474 565.513 104.202C569.489 103.136 573.502 100.519 581.043 94.1468C586.78 89.1641 587.659 88.3845 587.591 88.1307C587.523 87.8769 586.795 87.528 586.327 87.4722ZM564.991 92.1012C567.03 89.5601 569.628 87.4132 572.261 86.073C573.546 85.4565 574.985 85.0712 575.476 85.2116C575.967 85.3521 575.584 86.6332 574.757 87.943C573.782 89.3827 572.402 90.6594 570.485 91.6264C569.137 92.3501 566.453 93.1601 564.778 93.337L563.994 93.4564L564.991 92.1012ZM606.224 82.7756C606.094 82.629 605.687 82.4659 605.411 82.4493C604.943 82.3935 604.711 82.5461 604.171 83.235C603.754 83.7094 602.813 84.5962 601.973 85.184C601.217 85.749 600.293 86.3594 599.915 86.6419C599.622 86.9018 598.236 87.8174 596.849 88.733C595.547 89.6259 593.72 90.9313 592.819 91.6263L591.269 92.9482L589.497 92.4257C587.341 91.8246 586.782 91.4304 586.894 90.4938C586.96 89.388 587.72 87.8243 589.134 85.9948C590.424 84.3798 590.424 84.3798 591.106 84.5595C591.981 84.7784 592.128 84.6485 592.115 83.9264C592.064 83.3962 591.934 83.2496 591.375 82.8554C590.839 82.5458 590.562 82.5292 589.801 82.7332C588.532 83.0732 587.428 84.3664 585.818 87.1553C583.751 90.6104 584.413 92.0651 588.494 93.4198L590.181 93.965L589.533 94.592C587.674 96.4503 586.041 99.1546 586.268 100.001C586.426 100.593 587.713 101.336 588.627 101.363C589.84 101.491 589.925 101.469 591.566 100.485C594.892 98.687 596.254 96.3272 594.87 94.8846C594.718 94.6535 594.266 94.3212 593.944 94.1354L593.278 93.6792L594.935 92.4192C595.837 91.7242 597.409 90.4868 598.503 89.8311C604.867 85.4964 607.042 83.4629 606.224 82.7756ZM590.142 99.2343C588.564 100.111 588.395 100.156 588.535 99.665C588.731 98.7057 591.621 94.9393 592.298 94.7579C592.551 94.6899 592.789 94.8984 593.026 95.1069C593.721 96.0087 592.476 97.7929 590.142 99.2343ZM608.574 75.0736C609.081 74.9376 609.824 73.6505 609.711 73.2275C609.666 73.0583 609.598 72.8045 609.637 72.6127C609.676 72.4208 609.416 72.1277 608.987 71.88C608.191 71.2773 607.322 71.4194 607.036 72.0403C606.422 73.474 606.564 74.3426 607.53 74.9C607.852 75.0858 608.32 75.1416 608.574 75.0736ZM622.755 78.2554C622.433 78.0696 622.026 77.9065 621.857 77.9518C621.688 77.9972 620.64 78.8221 619.552 79.8389C616.853 82.2849 609.983 88.1152 608.912 88.8555C607.548 89.8557 606.471 90.235 606.042 89.9873C605.505 89.6776 605.415 89.3392 605.475 87.8724C605.49 86.2363 605.984 84.0186 606.698 82.2858C607.289 80.7675 608.325 79.2205 608.917 79.0618C609.763 78.8351 609.22 78.1644 608.154 77.9062C607.578 77.7884 607.325 77.8564 606.924 78.0543C604.636 79.6649 602.539 86.3922 603.564 89.2004C603.898 90.1083 604.05 90.3394 604.801 90.7729C605.315 90.998 606.128 91.3242 606.573 91.2955C607.617 91.4691 609.179 90.8692 610.481 89.9763C611.761 88.9988 619.888 82.1064 621.539 80.4853C623.567 78.5817 623.505 78.6889 622.755 78.2554ZM644.591 72.0417C643.823 71.8847 643.277 72.2126 641.31 74.0089C638.988 76.1724 636.549 78.9115 633.49 82.7232C631.242 85.5015 631.265 85.5861 631.337 84.8413C631.6 82.7762 632.633 78.51 633.38 76.2243L634.252 73.724L633.608 73.3524C633.287 73.1667 632.903 73.0881 632.649 73.1561C632.395 73.2241 631.685 73.9584 631.043 74.9464C629.945 76.6007 629.945 76.6007 629.64 76.1385C628.295 74.504 625.791 74.6312 623.125 76.5243C620.12 78.508 618.025 81.5175 617.374 84.5026C616.723 87.4878 617.408 89.0271 619.434 89.4817C621.268 89.8969 622.885 88.8287 625.922 84.9324C626.98 83.47 628.394 81.6405 629.081 80.8216L630.225 79.3365L629.816 81.5316C629.58 82.6827 629.256 84.8551 629.026 86.3673C628.708 88.9008 628.584 89.1153 627.795 90.2333C625.694 92.8817 621.465 99.0924 619.438 102.356C613.063 112.405 610.546 120.605 613.008 123.028C613.697 123.569 614.533 123.98 615.447 124.007C616.254 123.972 616.507 123.904 617.539 123.356C620.211 121.824 623.45 117.329 625.238 112.498C627.134 107.728 629.144 99.6643 630.101 93.4236L630.694 89.5472L632.896 86.5996C637.115 81.0264 640.219 77.3839 643.42 74.4408C645.387 72.6444 645.55 72.2381 644.591 72.0417ZM627.791 77.3593C627.611 78.0421 627.702 78.3805 627.832 78.527C628.069 78.7355 628.03 78.9273 627.821 79.1645C627.698 79.379 626.261 81.124 624.785 83.0608C623.225 85.0203 621.642 86.8952 621.287 87.2623C620.385 87.9573 619.692 88.4151 619.455 88.2066C618.619 87.7958 619.241 84.365 620.626 82.0898C621.927 79.8373 624.395 77.5439 626.504 76.6161C627.705 76.0223 627.942 76.2308 627.791 77.3593ZM627.98 93.6292C627.762 95.8635 625.781 104.373 624.534 108.516C622.78 114.154 620.117 118.766 617.125 121.472C616.037 122.489 615.152 122.907 614.7 122.575C614.164 122.265 613.897 120.252 614.149 118.824C614.854 114.011 619.526 105.052 625.771 96.2157C628.283 92.7319 628.075 92.9691 627.98 93.6292ZM666.944 65.871C665.922 65.782 662.451 69.0695 658.767 73.5928C655.229 77.9861 654.936 78.246 654.873 76.9936C654.77 75.9332 654.937 74.5282 655.295 71.8029C655.748 68.4175 655.753 67.4189 655.148 66.8555C654.606 66.1848 653.601 65.8193 652.84 66.0233C651.402 66.4086 648.382 70.0285 645.527 74.6015L644.762 75.8041L645.059 74.5457C645.233 73.5018 646.84 67.9937 647.183 66.9045C647.284 66.6054 647.238 66.4362 646.809 66.1885C646.058 65.755 645.444 65.829 645.157 66.45C643.941 68.6798 640.86 82.5617 641.425 83.317C641.555 83.4635 641.877 83.6493 642.261 83.7278C643.135 83.9468 643.305 83.9015 643.749 82.5131C644.193 81.1248 646.686 76.5578 648.674 73.4864C650.538 70.6295 653.456 67.3088 653.592 67.8164C653.615 67.901 653.425 69.2213 653.28 70.7109C652.726 74.3955 652.632 76.4152 652.904 77.4304C653.131 78.2764 653.368 78.4848 654.119 78.9183C654.977 79.4137 655.062 79.3911 655.97 79.0571C657.216 78.6325 657.988 77.791 660.714 74.431C662.815 71.7826 664.776 69.6252 666.704 68.0207C667.436 67.3711 668.084 66.7441 668.062 66.6595C668.163 66.3604 667.604 65.9661 666.944 65.871Z" fill="white"/>
</svg>
