<svg width="677" height="189" viewBox="0 0 677 189" fill="none" xmlns="http://www.w3.org/2000/svg">
<path d="M41.58 78.4863L20.7504 34.3719H3.96L32.472 90.9207H50.6088L79.1208 34.3719H62.3304L41.58 78.4863ZM123.925 34.3719H107.372C97.2347 34.3719 77.5139 36.6687 77.5139 62.6463C77.5139 88.7031 97.2347 90.9207 107.372 90.9207H119.728C129.152 90.9207 146.576 88.5447 149.269 71.9919H133.35C132.083 75.4767 129.786 76.7439 123.846 76.7439H103.254C97.2347 76.7439 94.7003 72.8631 93.7499 67.8735H149.269C149.269 67.8735 149.507 65.1807 149.507 61.6959C149.507 42.9255 137.864 34.3719 123.925 34.3719ZM103.254 48.6279H123.846C129.786 48.6279 133.271 51.0831 133.35 57.4983H93.7499C94.7003 52.5087 97.2347 48.6279 103.254 48.6279ZM179.979 48.6279L200.571 48.6279C205.877 48.6279 208.808 51.4791 209.679 55.9935H225.757C222.668 36.2727 205.64 34.3719 196.373 34.3719H184.097C173.881 34.3719 154.239 36.6687 154.239 62.6463C154.239 88.7031 173.881 90.9207 184.097 90.9207H194.789C199.779 90.9207 207.065 90.3663 213.164 86.8023L214.985 90.9207H225.757V59.7159L182.672 59.7159V70.1703H209.837C209.125 73.8927 205.798 76.7439 200.888 76.7439H179.979C171.98 76.7439 170 69.8535 170 62.6463C170 55.5183 171.98 48.6279 179.979 48.6279ZM275.885 34.7679H263.529C253.392 34.7679 233.671 36.9855 233.671 62.9631V90.9207H248.64V76.9815H290.695V90.9207H305.664V62.9631C305.664 36.9855 286.022 34.7679 275.885 34.7679ZM248.64 63.7551V62.1711C248.64 55.0431 250.62 48.9447 258.619 48.9447H280.795C288.794 48.9447 290.695 55.0431 290.695 62.1711V63.7551H248.64ZM355.781 34.7679H343.425C333.288 34.7679 313.567 36.9855 313.567 62.9631V90.9207H328.536V76.9815H370.591V90.9207H385.56V62.9631C385.56 36.9855 365.918 34.7679 355.781 34.7679ZM328.536 63.7551V62.1711C328.536 55.0431 330.516 48.9447 338.515 48.9447H360.691C368.69 48.9447 370.591 55.0431 370.591 62.1711V63.7551H328.536ZM434.489 33.5799C426.648 33.5799 415.718 36.1143 408.432 43.4007V34.3719H393.463V90.9207H408.432V71.1999C408.432 61.2207 413.58 48.6279 430.529 48.6279H431.638C443.914 48.6279 449.695 53.1423 449.695 64.2303V90.9207H465.456V62.6463C465.456 40.0743 446.923 33.5799 434.489 33.5799Z" fill="white"/>
<path opacity="0.7" d="M395.868 173.572C395.893 173.667 395.051 176.243 393.834 179.328C391.661 185.326 391.686 185.421 393.009 185.782C393.32 185.8 393.753 185.889 393.848 185.863C393.943 185.838 394.958 183.522 395.965 180.8C396.947 177.983 398.164 174.898 398.602 173.861L399.312 171.934L401.427 171.061C411.2 167.114 439.78 154.04 448.491 149.561C461.071 143.125 473.503 134.991 479.891 129.09C485.619 123.775 486.976 120.449 484.144 118.653C482.91 117.86 482.357 117.701 480.176 117.57C476.031 117.353 466.045 118.598 455.405 120.836C451.229 121.648 437.286 125.283 433.524 126.495C432.405 126.897 430.333 127.554 429.024 128.007C425.904 128.945 422.904 129.953 417.382 131.842L413.048 133.207L413.574 131.738C413.967 130.918 414.265 130.123 414.405 129.881C414.423 129.569 416.272 128.461 419.188 126.76C431.901 119.675 443.323 112.732 449.809 108.338C464.222 98.4475 475.424 88.3957 477.255 83.4093C477.877 81.9146 477.819 81.317 476.991 80.517C476.113 79.5263 474.358 79.077 472.158 79.2577C470.486 79.5013 463.883 81.1684 460.979 82.151C458.482 83.1266 451.962 85.4867 450.748 85.9141C446.3 87.6168 438.713 90.5694 433.648 92.6416C430.249 94.0634 427.37 95.1412 427.275 95.1668C427.154 95.097 428.269 91.6309 432.299 80.7422C434.403 74.8654 434.403 74.8654 435.261 74.6355L436.023 74.4312L435.97 72.7084C435.859 70.388 435.859 70.388 435.255 70.0391C434.435 69.6459 433.525 69.6852 433.246 70.1687C433.081 70.3151 432.276 72.2678 431.522 74.4111C430.768 76.5545 429.26 80.8412 428.139 83.9004C426.992 86.8643 425.553 91.0301 424.844 92.9573C424.159 94.9798 423.468 96.5954 423.494 96.6907C423.424 96.8116 419.002 98.6097 413.721 100.638C400.116 105.918 397.34 107.377 398.155 108.895C398.499 109.416 399.631 109.828 400.394 109.624C400.68 109.547 401.436 108.936 402.192 108.325C403.678 107.007 408.189 104.777 410.928 103.94C411.69 103.736 414.569 102.658 417.257 101.632C419.919 100.509 422.156 99.7057 422.182 99.801C422.277 99.7755 422.049 100.45 421.777 101.34C421.479 102.135 420.357 105.194 419.305 108.133C416.562 115.816 412.05 127.957 411.815 128.225C411.72 128.25 409.16 129.754 406.123 131.385C391.745 139.12 392.006 138.948 393.049 139.792C393.316 140.027 393.921 140.376 394.353 140.465C395.123 140.667 395.885 140.463 401.891 138.853L408.66 137.04L404.713 148.621C401.134 159.287 397.294 170.125 397.11 170.583C396.926 171.041 385.844 175.44 383.27 176.13C382.412 176.36 381.675 176.66 381.51 176.806C381.11 177.22 381.817 177.95 382.631 177.936C383.756 177.941 387.639 176.799 391.775 175.077C393.987 174.178 395.772 173.598 395.868 173.572ZM417.427 121.714C418.321 119.329 420.538 113.115 422.484 107.792C425.665 99.0721 426.032 98.1562 426.674 97.8821C427.862 97.3594 445.483 90.2879 448.266 89.2356C449.099 88.9104 449.931 88.5852 450.287 88.3877C450.573 88.311 453.07 87.3353 455.784 86.4039C466.752 82.3411 474.283 80.3232 474.92 81.1743C475.117 81.5301 474.007 83.8709 472.649 85.6653C466.625 93.3078 453.014 103.903 435.785 114.343C430.785 117.42 422.749 122.128 418.645 124.351C417.222 125.141 416.084 125.855 415.989 125.88C415.894 125.906 416.603 123.979 417.427 121.714ZM404.596 135.983C401.285 136.972 400.497 137.081 401.139 136.807C402.797 135.75 410.484 131.647 410.605 131.716C410.726 131.786 409.477 134.369 409.216 134.541C409.025 134.592 406.954 135.249 404.596 135.983ZM400.484 169.065C400.459 168.97 401.213 166.827 402.036 164.563C402.93 162.177 405.078 156.085 406.858 150.907C408.638 145.73 410.533 140.216 411.128 138.626L412.11 135.809L413.705 135.279C414.538 134.954 416.133 134.424 417.156 134.048C421.109 132.785 422.964 132.083 424.273 131.63C425.582 131.177 428.703 130.239 435.204 128.19C440.847 126.372 455.579 122.629 460.829 121.631C470.948 119.737 480.699 118.759 482.41 119.424C483.663 119.906 482.23 122.946 479.43 125.842C472.629 132.875 458.019 142.41 441.779 150.44C437.268 152.67 420.544 160.421 411.515 164.475C403.744 167.885 400.345 169.307 400.484 169.065ZM510.89 118.434C510.311 118.181 510.121 118.232 509.009 119.04C507.351 120.098 506.074 121.053 504.137 122.594L502.651 123.912L501.776 120.263C500.831 116.736 500.831 116.736 500.105 116.317C499.717 116.013 499.189 115.95 498.713 116.078C497.855 116.307 497.297 117.274 495.395 122.382C493.95 126.141 493.925 126.045 494.146 124.964C494.605 120.959 494.808 120.189 494.999 120.138C495.285 120.061 494.934 119.134 494.45 118.854C493.604 118.366 492.676 118.717 492.499 119.582C492.146 121.311 490.866 130.645 490.502 134.626C490.327 137.023 490.404 137.309 491.459 137.434C492.419 137.586 492.584 137.439 492.894 135.926C493.16 134.629 494.535 130.991 498.046 121.978L499.123 119.135L499.959 121.874C500.77 124.518 500.821 124.708 501.521 125.032C502.92 125.679 503.683 125.474 505.925 123.545C507.697 122.151 509.069 121.17 511.197 119.578C511.883 119.088 511.78 118.707 510.89 118.434ZM549.823 108.309C549.555 108.074 549.002 107.916 548.812 107.967C548.526 108.043 547.249 108.999 545.928 110.17C540.974 114.562 531.84 120.893 529.768 121.55L528.65 121.952L528.439 120.782C528.1 119.136 528.719 116.109 530.292 112.827C530.939 111.427 531.655 109.907 531.699 109.691C531.997 108.896 531.533 108.305 530.477 108.179C529.517 108.028 529.517 108.028 527.403 110.434C526.838 110.994 526.838 110.994 526.71 110.517C526.506 109.754 525.341 108.84 524.139 108.549C522.6 108.144 519.905 108.764 517.892 110.019C512.206 113.586 505.917 122.526 506.811 125.862C507.245 127.483 509.318 128.358 511.511 127.77C514.276 127.029 519.941 122.242 525.274 116.215C525.953 115.318 526.683 114.611 526.683 114.611C526.778 114.586 526.646 115.234 526.373 116.125C526.171 116.894 525.931 118.287 525.875 119.221C525.821 121.688 526.559 122.921 528.505 123.319C530.642 123.666 532.637 122.723 538.551 118.481C543.518 114.903 548.573 110.891 550.053 109.167L550.522 108.632L549.823 108.309ZM520.539 117.994C518.095 120.693 514.767 123.526 512.779 124.876C510.791 126.226 509.793 126.698 509.526 126.463C508.457 125.523 510.79 120.505 513.888 116.814C517.361 112.613 521.312 109.818 523.588 109.923C524.306 109.935 524.453 110.1 524.631 110.768C524.759 111.244 524.957 111.6 525.389 111.688C525.605 111.733 525.847 111.872 525.872 111.968C525.924 112.158 523.575 114.831 520.539 117.994ZM574.951 100.963C573.801 100.862 569.889 104.567 565.737 109.664C561.751 114.615 561.421 114.908 561.349 113.497C561.233 112.302 561.422 110.718 561.825 107.647C562.335 103.832 562.34 102.707 561.659 102.072C561.048 101.316 559.916 100.904 559.058 101.134C557.438 101.568 554.035 105.648 550.818 110.801L549.955 112.156L550.29 110.738C550.486 109.562 552.297 103.355 552.683 102.127C552.797 101.79 552.746 101.599 552.262 101.32C551.416 100.832 550.723 100.915 550.4 101.615C549.03 104.128 545.558 119.771 546.195 120.622C546.341 120.787 546.704 120.997 547.136 121.085C548.122 121.332 548.313 121.281 548.813 119.716C549.314 118.152 552.124 113.005 554.364 109.544C556.464 106.325 559.753 102.583 559.906 103.155C559.932 103.25 559.717 104.738 559.554 106.417C558.93 110.569 558.824 112.845 559.131 113.989C559.386 114.942 559.653 115.177 560.5 115.665C561.467 116.224 561.562 116.198 562.585 115.822C563.989 115.343 564.859 114.395 567.932 110.609C570.299 107.624 572.509 105.193 574.681 103.385C575.507 102.653 576.237 101.946 576.211 101.851C576.325 101.514 575.695 101.07 574.951 100.963ZM588.175 95.5803C589.625 90.6961 593.148 80.965 595.43 75.7556C597.808 70.5206 603.94 57.9447 605.476 55.2854L607.29 52.1427L606.565 51.724C605.426 50.9053 604.931 51.3445 603.23 54.1502C600.971 57.9228 593.317 73.9717 591.111 79.4671C588.95 84.7464 586.397 92.3783 585.517 95.5771C585.207 97.0906 584.744 98.032 584.161 98.9037C583.647 99.6545 583.177 100.189 583.081 100.215C582.986 100.24 582.884 99.8588 582.756 99.3822C582.577 98.7148 582.31 98.4799 581.706 98.131C580.523 97.5285 579.995 97.4655 578.66 97.8231C577.612 98.1041 577.091 98.448 576.1 99.3265C571.598 103.496 567.989 111.002 569.276 113.518C569.646 114.134 570.734 114.762 571.624 115.035C571.936 115.053 572.654 115.065 573.226 114.912C574.847 114.478 575.951 113.262 580.191 107.732C582.229 105.041 583.892 102.858 583.987 102.833C584.083 102.807 584.045 103.43 584.033 104.149C583.681 107.41 584.211 109.006 585.731 109.722C587.01 110.299 588.23 110.279 589.653 109.489C590.911 108.845 600.704 100.397 603.244 97.6729C604.114 96.7246 605.193 95.4137 605.637 94.7838L606.456 93.6448L605.852 93.2959C605.489 93.0865 604.936 92.9283 604.745 92.9794C604.555 93.0304 603.659 93.8834 602.815 94.927C600.682 97.6442 589.359 107.626 587.789 108.251L586.696 108.748L586.466 107.89C586.032 106.27 586.794 100.344 588.175 95.5803ZM578.702 105.986C576.664 108.678 574.531 111.395 573.966 111.955C573.496 112.489 572.766 113.196 572.29 113.324L571.578 113.719L571.418 112.74C571.077 109.562 576.369 101.094 579.787 99.3603C580.404 98.9908 580.404 98.9908 580.608 99.7535C580.787 100.421 581.054 100.656 581.703 100.788L582.498 101.086L578.702 105.986ZM609.532 84.4422C610.104 84.2889 610.942 82.8384 610.814 82.3618C610.763 82.1711 610.686 81.8851 610.731 81.6689C610.775 81.4527 610.482 81.1225 609.999 80.8433C609.101 80.1642 608.123 80.3243 607.799 81.024C607.108 82.6396 607.268 83.6184 608.356 84.2465C608.719 84.4559 609.246 84.5188 609.532 84.4422ZM625.513 88.0277C625.15 87.8184 624.692 87.6345 624.502 87.6856C624.311 87.7367 623.13 88.6663 621.904 89.8121C618.862 92.5685 611.12 99.1386 609.913 99.9729C608.376 101.1 607.163 101.527 606.679 101.248C606.075 100.899 605.973 100.518 606.04 98.865C606.057 97.0213 606.614 94.5222 607.419 92.5695C608.084 90.8585 609.252 89.1152 609.919 88.9364C610.873 88.681 610.261 87.9252 609.059 87.6342C608.411 87.5014 608.125 87.5781 607.674 87.8011C605.095 89.6161 602.733 97.1969 603.887 100.362C604.263 101.385 604.435 101.645 605.281 102.134C605.86 102.387 606.776 102.755 607.278 102.722C608.455 102.918 610.215 102.242 611.682 101.236C613.124 100.134 622.282 92.3673 624.143 90.5405C626.429 88.3953 626.359 88.5162 625.513 88.0277ZM650.546 80.7072C649.395 80.6069 645.483 84.3115 641.331 89.4088C637.345 94.3596 637.015 94.6525 636.943 93.2412C636.827 92.0462 637.016 90.4629 637.419 87.3918C637.93 83.5768 637.935 82.4515 637.254 81.8166C636.642 81.0608 635.51 80.6489 634.652 80.8788C633.032 81.313 629.629 85.3922 626.412 90.5456L625.549 91.9007L625.884 90.4826C626.08 89.3063 627.891 83.0993 628.277 81.8718C628.391 81.5348 628.34 81.3441 627.856 81.0649C627.01 80.5764 626.317 80.6599 625.994 81.3596C624.624 83.8724 621.152 99.5158 621.789 100.367C621.936 100.532 622.298 100.741 622.731 100.83C623.716 101.077 623.907 101.026 624.407 99.461C624.908 97.8965 627.718 92.75 629.958 89.2889C632.058 86.0695 635.347 82.3275 635.5 82.8994C635.526 82.9948 635.311 84.4827 635.148 86.1612C634.524 90.3133 634.418 92.5894 634.725 93.7334C634.98 94.6867 635.248 94.9216 636.094 95.4101C637.061 95.9684 637.156 95.9428 638.179 95.5665C639.584 95.088 640.453 94.1398 643.526 90.3534C645.894 87.369 648.103 84.9378 650.275 83.1297C651.101 82.3976 651.831 81.6911 651.805 81.5957C651.919 81.2586 651.289 80.8144 650.546 80.7072ZM675.815 74.1407C674.95 73.9638 674.333 74.3332 672.117 76.3575C669.501 78.7956 666.752 81.8822 663.305 86.1776C660.772 89.3084 660.798 89.4038 660.879 88.5645C661.175 86.2373 662.339 81.4297 663.182 78.854L664.164 76.0365L663.438 75.6178C663.076 75.4084 662.643 75.3199 662.357 75.3965C662.071 75.4732 661.271 76.3006 660.548 77.414C659.31 79.2782 659.31 79.2782 658.967 78.7573C657.451 76.9155 654.629 77.0587 651.624 79.192C648.238 81.4275 645.878 84.8189 645.144 88.1828C644.411 91.5468 645.182 93.2814 647.465 93.7936C649.532 94.2616 651.355 93.0579 654.776 88.6672C655.969 87.0192 657.563 84.9575 658.337 84.0347L659.626 82.3612L659.165 84.8348C658.899 86.132 658.533 88.58 658.275 90.2841C657.916 93.139 657.776 93.3808 656.888 94.6406C654.52 97.625 649.754 104.624 647.47 108.301C640.287 119.626 637.45 128.867 640.225 131.597C641.001 132.206 641.942 132.669 642.972 132.7C643.881 132.661 644.167 132.584 645.33 131.966C648.341 130.24 651.991 125.175 654.006 119.73C656.142 114.356 658.407 105.268 659.486 98.2358L660.154 93.8674L662.636 90.5459C667.39 84.2655 670.888 80.1607 674.495 76.8442C676.712 74.8199 676.896 74.362 675.815 74.1407ZM656.883 80.133C656.68 80.9025 656.783 81.2838 656.929 81.4489C657.196 81.6838 657.152 81.9 656.917 82.1673C656.778 82.4091 655.159 84.3755 653.496 86.558C651.737 88.7662 649.954 90.879 649.554 91.2927C648.537 92.0758 647.756 92.5917 647.489 92.3568C646.547 91.8939 647.248 88.0277 648.809 85.4638C650.275 82.9255 653.056 80.341 655.432 79.2956C656.786 78.6264 657.053 78.8613 656.883 80.133ZM657.096 98.4675C656.851 100.985 654.618 110.575 653.212 115.243C651.236 121.596 648.236 126.794 644.863 129.843C643.638 130.989 642.64 131.461 642.131 131.086C641.527 130.737 641.225 128.468 641.509 126.859C642.304 121.435 647.569 111.34 654.607 101.382C657.438 97.4563 657.203 97.7236 657.096 98.4675Z" fill="white"/>
</svg>
